<svg width="1483" height="383" viewBox="0 0 1483 383" fill="none" xmlns="http://www.w3.org/2000/svg">
<g clip-path="url(#clip0_6_16)">
<path d="M4.49797 7.47717H197.021C362.555 7.47717 427.33 97.2039 427.33 192.192C427.33 288.842 344.263 374.969 186.226 374.969H4.79787C4.23964 375.04 3.67145 375 3.13127 374.852C2.59108 374.704 2.09137 374.451 1.66554 374.11C1.23972 373.769 0.897569 373.348 0.662021 372.876C0.426472 372.403 0.302935 371.889 0.299662 371.369C0.299662 369.43 2.39882 367.769 5.39762 367.769H39.2841C49.78 367.769 56.6772 361.953 56.6772 351.152V31.8474C56.6772 23.8163 52.4789 14.9544 38.6844 14.9544H4.19812C3.66053 14.9969 3.11926 14.9351 2.60908 14.773C2.09889 14.6108 1.63107 14.3519 1.23569 14.0129C0.840309 13.6738 0.526099 13.2622 0.313252 12.8043C0.100405 12.3465 -0.00638769 11.8526 -0.00023692 11.3543C-0.00023692 9.69271 0.599525 7.47717 4.49797 7.47717ZM124.75 357.799C124.75 365.83 128.649 368.322 134.346 368.322H185.326C310.976 368.322 356.558 279.427 356.558 190.254C356.558 101.081 308.277 14.6775 202.119 14.6775H132.757C125.56 14.6775 124.96 20.2161 124.96 22.7086L124.75 357.799ZM446.522 7.47717C443.523 7.47717 440.824 8.58494 440.824 10.8004C440.793 11.3049 440.883 11.8096 441.087 12.2784C441.292 12.7472 441.606 13.1685 442.007 13.5124C442.408 13.8562 442.886 14.1141 443.407 14.2677C443.929 14.4212 444.48 14.4666 445.023 14.4005H478.909C486.706 14.4005 494.203 19.3854 494.203 33.2321V351.429C494.203 358.076 488.805 368.045 479.209 368.045H445.622C445.056 367.989 444.483 368.05 443.946 368.224C443.408 368.399 442.92 368.683 442.517 369.055C442.114 369.427 441.807 369.878 441.618 370.374C441.429 370.87 441.362 371.4 441.424 371.923C441.424 373.03 441.124 374.969 445.622 374.969H608.758C611.157 374.969 614.455 374.692 614.455 372.476C614.455 370.261 613.855 368.045 609.657 368.045H578.17C573.671 368.045 561.376 365.553 561.376 352.814V29.9089C561.376 20.77 567.674 14.6775 579.069 14.6775H609.957C612.656 14.6775 614.155 13.2929 614.155 11.3543C614.155 9.41578 612.656 7.75412 609.057 7.75412H446.522V7.47717ZM701.421 191.362C701.421 89.7267 750.601 7.47717 842.964 7.47717C933.528 7.47717 984.508 89.7267 984.508 191.362C984.508 292.996 938.026 375.246 842.964 375.246C750.901 375.523 701.421 292.996 701.421 191.362ZM842.964 383C974.312 383 1057.08 297.15 1057.08 191.638C1057.08 86.1265 975.212 0 842.964 0C710.717 0 628.849 85.8496 628.849 191.362C628.849 296.873 714.315 383 842.964 383ZM1476.91 372.753C1425.33 377.738 1396.84 299.643 1370.75 262.534C1351.26 235.117 1309.88 207.147 1269.09 201.608C1336.27 198.008 1411.54 178.069 1411.54 107.727C1411.54 50.6789 1373.45 7.47717 1233.71 7.47717H1072.67C1072.16 7.42767 1071.64 7.47556 1071.14 7.61789C1070.65 7.76021 1070.19 7.99399 1069.8 8.30498C1069.41 8.61597 1069.09 8.99761 1068.86 9.42665C1068.63 9.85569 1068.5 10.3231 1068.47 10.8004C1068.49 11.2926 1068.61 11.7772 1068.83 12.2257C1069.05 12.6742 1069.37 13.0777 1069.76 13.4127C1070.15 13.7478 1070.61 14.0077 1071.11 14.1773C1071.61 14.3469 1072.14 14.4228 1072.67 14.4005H1109.56C1117.36 14.4005 1124.85 19.3854 1124.85 33.2321V351.429C1124.85 358.076 1119.45 368.045 1109.86 368.045H1073.57C1072.54 367.991 1071.53 368.307 1070.75 368.926C1069.97 369.546 1069.47 370.421 1069.37 371.369C1069.45 372.348 1069.93 373.265 1070.71 373.933C1071.48 374.601 1072.51 374.971 1073.57 374.969H1244.5C1246.9 374.969 1249 373.861 1249 371.646C1249 369.43 1247.5 368.045 1244.2 368.045H1209.72C1205.22 368.045 1192.93 365.276 1192.93 352.814V202.577H1210.62C1295.18 202.577 1301.48 287.319 1343.47 335.783C1379.45 377.323 1426.53 382.585 1453.22 382.585C1462.07 382.932 1470.93 382.281 1479.61 380.646C1484.11 379.261 1485.01 372.061 1476.91 372.892M1210.02 14.539H1234.91C1277.49 14.539 1346.46 30.0473 1346.46 104.266C1346.46 172.392 1285.29 195.377 1228.61 195.377H1192.33V30.0474C1192.33 20.6316 1198.62 14.539 1210.02 14.539Z" fill="#555555"/>
</g>
<defs>
<clipPath id="clip0_6_16">
<rect width="1483" height="383" fill="white"/>
</clipPath>
</defs>
</svg>
