<svg width="800" height="800" viewBox="0 0 800 800" fill="none" xmlns="http://www.w3.org/2000/svg">
<path d="M511.125 125H288.85C245.404 125.033 203.748 142.306 173.027 173.027C142.306 203.748 125.033 245.404 125 288.85V511.125C125.026 554.575 142.297 596.238 173.018 626.964C203.74 657.69 245.4 674.967 288.85 675H511.125C554.573 674.96 596.229 657.681 626.949 626.957C657.669 596.232 674.942 554.573 674.975 511.125V288.85C674.955 245.4 657.686 203.736 626.963 173.013C596.239 142.289 554.575 125.02 511.125 125ZM619.675 511.125C619.668 539.912 608.23 567.518 587.874 587.874C567.519 608.23 539.912 619.668 511.125 619.675H288.85C274.596 619.675 260.482 616.867 247.314 611.412C234.145 605.956 222.18 597.96 212.102 587.88C202.025 577.8 194.031 565.833 188.579 552.663C183.126 539.494 180.322 525.379 180.325 511.125V288.85C180.322 274.597 183.127 260.484 188.579 247.315C194.032 234.147 202.026 222.182 212.104 212.104C222.182 202.026 234.147 194.032 247.315 188.579C260.484 183.127 274.597 180.322 288.85 180.325H511.125C539.906 180.332 567.506 191.768 587.856 212.119C608.207 232.47 619.643 260.069 619.65 288.85L619.675 511.125Z" fill="#555555"/>
<path d="M400 257.8C321.55 257.8 257.8 321.575 257.8 400C257.8 478.425 321.575 542.2 400 542.2C478.425 542.2 542.2 478.425 542.2 400C542.2 321.575 478.45 257.8 400 257.8ZM400 486.875C376.959 486.878 354.861 477.729 338.566 461.439C322.272 445.149 313.116 423.053 313.113 400.012C313.109 376.972 322.259 354.873 338.549 338.579C354.839 322.284 376.934 313.128 399.975 313.125C423.016 313.122 445.114 322.271 461.409 338.561C477.703 354.851 486.859 376.947 486.863 399.987C486.866 423.028 477.716 445.126 461.426 461.421C445.136 477.716 423.041 486.872 400 486.875ZM542.5 224.775C549.237 224.78 555.822 226.782 561.422 230.528C567.021 234.274 571.385 239.596 573.961 245.821C576.537 252.047 577.21 258.896 575.894 265.504C574.578 272.111 571.334 278.181 566.57 282.945C561.806 287.709 555.736 290.953 549.129 292.269C542.521 293.585 535.672 292.912 529.447 290.336C523.221 287.76 517.899 283.396 514.153 277.797C510.407 272.197 508.405 265.612 508.4 258.875C508.4 240.075 521.15 224.775 542.5 224.775Z" fill="#555555"/>
</svg>
