<svg width="2000" height="1080" viewBox="0 0 2000 1080" fill="none" xmlns="http://www.w3.org/2000/svg">
<path d="M1770 353C1783.23 352.93 1796.46 352.877 1809.7 352.845C1815.84 352.829 1821.99 352.808 1828.13 352.774C1834.08 352.741 1840.02 352.723 1845.97 352.715C1848.22 352.71 1850.48 352.699 1852.73 352.683C1881.51 352.482 1912.43 355.931 1934.1 376.994C1935.41 378.317 1936.71 379.658 1938 381C1938.66 381.632 1939.33 382.263 1940.01 382.914C1955.84 399.027 1960.19 425.498 1960.38 447.125C1960.16 468.916 1954.99 491.247 1939.38 507.25C1925.51 520.804 1908.46 526.042 1890 530C1890 530.33 1890 530.66 1890 531C1891.17 531.268 1892.35 531.536 1893.56 531.812C1913.6 536.597 1932.97 544.203 1944.52 562.355C1949.97 572.08 1953.85 582.033 1956 593C1956.17 593.856 1956.34 594.712 1956.51 595.594C1958.35 606.526 1958.3 617.394 1958.3 628.453C1958.31 632.03 1958.33 635.608 1958.35 639.186C1958.4 649.348 1958.43 659.509 1958.46 669.671C1958.47 675.912 1958.5 682.152 1958.54 688.393C1958.55 690.763 1958.56 693.132 1958.56 695.501C1958.56 698.808 1958.58 702.115 1958.6 705.422C1958.59 706.394 1958.59 707.366 1958.59 708.367C1958.65 713.996 1959.23 718.055 1962 723C1965.39 725.263 1966.07 725.17 1969.94 724.687C1970.79 724.588 1971.65 724.489 1972.53 724.387C1975.27 723.995 1975.27 723.995 1979 723C1979 726.63 1979 730.26 1979 734C1977.15 734.654 1975.29 735.297 1973.44 735.937C1972.4 736.297 1971.37 736.657 1970.31 737.027C1954.42 741.698 1934.55 740.119 1919.56 733.375C1909.55 727.886 1904.3 719.773 1901 709C1899.2 701.789 1898.71 694.915 1898.71 687.502C1898.71 686.398 1898.7 685.294 1898.69 684.157C1898.68 681.774 1898.67 679.392 1898.66 677.01C1898.66 673.224 1898.64 669.438 1898.61 665.651C1898.56 657.601 1898.53 649.55 1898.5 641.5C1898.46 632.19 1898.42 622.881 1898.36 613.571C1898.34 609.871 1898.34 606.17 1898.33 602.469C1898.98 570.361 1898.98 570.361 1884.81 542.75C1872.48 535.075 1860.82 535.706 1846 535C1846 598.03 1846 661.06 1846 726C1853.59 726 1861.18 726 1869 726C1869 729.3 1869 732.6 1869 736C1836.33 736 1803.66 736 1770 736C1770 732.7 1770 729.4 1770 726C1775.28 726 1780.56 726 1786 726C1786 606.21 1786 486.42 1786 363C1780.72 363 1775.44 363 1770 363C1770 359.7 1770 356.4 1770 353ZM1846 363C1846 416.46 1846 469.92 1846 525C1868.32 526.379 1868.32 526.379 1888.29 517.836C1903.9 501.051 1902.35 472.466 1902.26 451.103C1902.25 448.003 1902.26 444.904 1902.27 441.805C1902.38 404.233 1902.38 404.233 1885.9 371.531C1873.62 361.643 1861.8 363 1846 363Z" fill="#555555"/>
<path d="M714 353C776.37 353 838.74 353 903 353C903 402.5 903 452 903 503C899.7 503 896.4 503 893 503C891.487 499.974 891.623 496.763 891.422 493.434C891.315 491.833 891.208 490.233 891.1 488.632C891.044 487.785 890.987 486.939 890.929 486.067C887.271 422.52 887.271 422.52 857 369C850.976 363.908 846.231 363.496 838 362C838 482.12 838 602.24 838 726C843.94 726 849.88 726 856 726C856 729.3 856 732.6 856 736C824.32 736 792.64 736 760 736C760 732.7 760 729.4 760 726C765.94 726 771.88 726 778 726C778 605.88 778 485.76 778 362C765.68 364.24 758.705 366.377 751 376C726.659 412.098 726.618 461.051 724 503C720.7 503 717.4 503 714 503C714 453.5 714 404 714 353Z" fill="#555555"/>
<path d="M372 353C400.71 353 429.42 353 459 353C464.624 366.497 464.624 366.497 466.346 371.333C466.739 372.432 467.132 373.53 467.537 374.662C468.153 376.398 468.153 376.398 468.781 378.168C469.231 379.428 469.682 380.689 470.133 381.949C471.091 384.63 472.048 387.311 473.004 389.993C475.577 397.211 478.163 404.424 480.75 411.637C481.145 412.738 481.145 412.738 481.548 413.861C486.778 428.44 492.121 442.975 497.5 457.5C506.206 481.02 514.73 504.601 523.188 528.211C523.42 528.86 523.653 529.509 523.892 530.178C524.97 533.187 526.047 536.195 527.123 539.205C531.041 550.152 535.026 561.072 539 572C539.495 468.545 539.495 468.545 540 363C531.75 363 523.5 363 515 363C515 359.7 515 356.4 515 353C534.14 353 553.28 353 573 353C573 356.3 573 359.6 573 363C566.4 363 559.8 363 553 363C553 486.42 553 609.84 553 737C546.73 737 540.46 737 534 737C531.145 729.99 528.508 722.939 526.016 715.793C525.643 714.731 525.271 713.67 524.887 712.576C524.089 710.299 523.291 708.021 522.494 705.743C520.363 699.652 518.224 693.562 516.086 687.473C515.654 686.242 515.222 685.012 514.777 683.744C510.839 672.527 506.864 661.324 502.875 650.125C501.569 646.457 500.263 642.789 498.957 639.121C498.634 638.214 498.311 637.306 497.978 636.371C494.161 625.648 490.361 614.918 486.562 604.188C486.21 603.192 485.857 602.196 485.494 601.17C483.71 596.129 481.925 591.089 480.141 586.048C476.949 577.031 473.755 568.014 470.561 558.997C468.791 553.998 467.02 548.999 465.25 544C464.542 542 463.833 540 463.125 538C445.417 488 427.708 438 410 388C409.67 499.54 409.34 611.08 409 726C417.25 726 425.5 726 434 726C434 729.3 434 732.6 434 736C417.5 736 401 736 384 736C384 732.7 384 729.4 384 726C387.96 726 391.92 726 396 726C396 606.21 396 486.42 396 363C388.08 363 380.16 363 372 363C372 359.7 372 356.4 372 353Z" fill="#555555"/>
<path d="M1288 353C1343.11 353 1398.22 353 1455 353C1455 390.95 1455 428.9 1455 468C1451.7 468 1448.4 468 1445 468C1444.93 467.226 1444.86 466.452 1444.79 465.655C1440.49 415.817 1440.49 415.817 1414 375C1398.59 363.29 1382.11 363.796 1363 363C1363 419.1 1363 475.2 1363 533C1382.24 531.861 1382.24 531.861 1397.94 522.438C1409.69 507.14 1409.98 485.381 1412 467C1414.97 467 1417.94 467 1421 467C1421 514.85 1421 562.7 1421 612C1418.03 612 1415.06 612 1412 612C1411.9 611.079 1411.8 610.158 1411.7 609.209C1411.31 605.713 1410.91 602.219 1410.51 598.725C1410.34 597.227 1410.17 595.729 1410.01 594.231C1407.69 570.355 1407.69 570.355 1395.62 550.562C1385.87 543.054 1375.24 543.72 1363 543C1363 603.39 1363 663.78 1363 726C1370.59 726 1378.18 726 1386 726C1386 729.3 1386 732.6 1386 736C1353.66 736 1321.32 736 1288 736C1288 732.7 1288 729.4 1288 726C1292.95 726 1297.9 726 1303 726C1303 606.21 1303 486.42 1303 363C1298.05 363 1293.1 363 1288 363C1288 359.7 1288 356.4 1288 353Z" fill="#555555"/>
<path d="M926 353C958.01 353 990.02 353 1023 353C1023 356.3 1023 359.6 1023 363C1014.42 363 1005.84 363 997 363C997.933 366.006 998.867 369.012 999.828 372.109C1004.85 388.518 1009.4 405.065 1014.01 421.594C1016.03 428.843 1018.06 436.091 1020.09 443.338C1020.61 445.182 1021.12 447.025 1021.64 448.869C1027.03 468.133 1032.47 487.382 1037.94 506.625C1038.36 508.099 1038.77 509.573 1039.19 511.047C1041.46 519.032 1043.73 527.016 1046 535C1047.74 531.829 1048.69 528.756 1049.57 525.252C1049.86 524.078 1050.16 522.904 1050.47 521.694C1050.79 520.396 1051.11 519.098 1051.44 517.8C1051.78 516.429 1052.13 515.059 1052.47 513.688C1053.41 509.963 1054.34 506.236 1055.27 502.509C1056.26 498.586 1057.24 494.665 1058.23 490.743C1060.1 483.289 1061.97 475.835 1063.84 468.379C1065.94 459.991 1068.05 451.604 1070.15 443.218C1076.78 416.816 1083.4 390.41 1090 364C1077.13 363.505 1077.13 363.505 1064 363C1064 359.7 1064 356.4 1064 353C1081.49 353 1098.98 353 1117 353C1117 356.3 1117 359.6 1117 363C1112.38 363.33 1107.76 363.66 1103 364C1102.67 365.324 1102.33 366.649 1101.99 368.013C1098.74 380.896 1095.5 393.779 1092.25 406.661C1090.26 414.542 1088.28 422.422 1086.29 430.303C1085.65 432.85 1085.01 435.397 1084.36 437.944C1082.87 443.856 1081.38 449.769 1079.93 455.69C1079.08 459.128 1078.23 462.565 1077.37 466.001C1077.2 466.691 1077.03 467.381 1076.85 468.092C1074.31 478.271 1071.47 488.334 1068.47 498.388C1054.53 545.39 1051.37 589.337 1052.19 638.226C1052.34 647.84 1052.38 657.454 1052.42 667.07C1052.49 686.715 1052.7 706.357 1053 726C1058.94 726 1064.88 726 1071 726C1071 729.3 1071 732.6 1071 736C1039.65 736 1008.3 736 976 736C976 732.7 976 729.4 976 726C981.61 726 987.22 726 993 726C993.339 705.061 993.561 684.124 993.645 663.183C993.687 653.45 993.764 643.72 993.936 633.988C994.782 584.636 991.018 541.534 975.202 494.651C971.54 483.792 968.455 472.799 965.464 461.738C964.134 456.841 962.76 451.955 961.391 447.068C960.868 445.195 960.345 443.322 959.822 441.448C959.564 440.523 959.306 439.598 959.04 438.646C958.78 437.711 958.519 436.776 958.25 435.812C956.09 428.069 953.929 420.325 951.766 412.582C951.512 411.675 951.259 410.767 950.998 409.832C946.724 394.538 942.392 379.261 938 364C934.04 363.67 930.08 363.34 926 363C926 359.7 926 356.4 926 353Z" fill="#555555"/>
<path d="M1531 353C1539.91 353 1548.82 353 1558 353C1596.2 546.83 1596.2 546.83 1631 725C1633.97 725.33 1636.94 725.66 1640 726C1640 729.3 1640 732.6 1640 736C1608.98 736 1577.96 736 1546 736C1546 732.7 1546 729.4 1546 726C1554.25 726 1562.5 726 1571 726C1570.35 722.904 1569.69 719.807 1569.02 716.617C1565.47 699.67 1562.14 682.679 1558.79 665.692C1557.86 660.996 1556.93 656.3 1556 651.604C1555.28 647.964 1554.56 644.323 1553.84 640.682C1553.5 638.947 1553.15 637.213 1552.81 635.479C1552.33 633.08 1551.86 630.681 1551.39 628.282C1551.25 627.569 1551.11 626.857 1550.96 626.123C1550 621.228 1550 621.228 1550 619C1530.2 619 1510.4 619 1490 619C1489.67 622.3 1489.34 625.6 1489 629C1488.42 632.331 1487.81 635.635 1487.14 638.948C1486.86 640.354 1486.86 640.354 1486.58 641.79C1485.97 644.853 1485.36 647.915 1484.75 650.977C1484.32 653.115 1483.9 655.253 1483.47 657.391C1482.36 662.991 1481.24 668.59 1480.12 674.189C1478.98 679.913 1477.84 685.638 1476.71 691.363C1474.48 702.577 1472.24 713.789 1470 725C1479.9 725.33 1489.8 725.66 1500 726C1500 729.3 1500 732.6 1500 736C1480.53 736 1461.06 736 1441 736C1441 732.7 1441 729.4 1441 726C1446.61 726 1452.22 726 1458 726C1458.11 724.637 1458.22 723.273 1458.34 721.868C1459.01 715.194 1460.32 708.676 1461.64 702.104C1461.91 700.72 1462.19 699.335 1462.46 697.951C1463.05 694.963 1463.64 691.976 1464.24 688.99C1465.2 684.16 1466.16 679.328 1467.12 674.497C1468.5 667.532 1469.88 660.568 1471.27 653.604C1473.45 642.623 1475.63 631.642 1477.8 620.66C1478.08 619.284 1478.08 619.284 1478.35 617.88C1479.28 613.224 1480.2 608.567 1481.12 603.911C1481.87 600.153 1482.61 596.396 1483.35 592.638C1490.69 555.604 1497.96 518.556 1505.19 481.5C1505.32 480.837 1505.45 480.175 1505.58 479.492C1506.71 473.686 1507.84 467.88 1508.98 462.073C1511.39 449.729 1513.8 437.385 1516.21 425.042C1516.76 422.227 1517.31 419.412 1517.86 416.596C1519.52 408.101 1521.18 399.607 1522.85 391.113C1523.58 387.372 1524.32 383.632 1525.05 379.891C1525.73 376.409 1526.41 372.928 1527.09 369.447C1527.47 367.547 1527.84 365.646 1528.21 363.745C1528.43 362.617 1528.65 361.488 1528.88 360.326C1529.17 358.847 1529.17 358.847 1529.47 357.339C1530 355 1530 355 1531 353ZM1520 465C1516.31 482.413 1512.85 499.863 1509.48 517.34C1508.97 519.971 1508.46 522.602 1507.95 525.234C1506.9 530.688 1505.85 536.143 1504.8 541.598C1503.58 547.903 1502.36 554.207 1501.14 560.512C1499.96 566.618 1498.78 572.724 1497.61 578.83C1497.11 581.417 1496.61 584.003 1496.11 586.59C1495.41 590.174 1494.72 593.759 1494.03 597.344C1493.82 598.415 1493.62 599.486 1493.4 600.59C1493.22 601.558 1493.03 602.526 1492.84 603.524C1492.68 604.369 1492.51 605.214 1492.35 606.086C1491.97 607.84 1491.97 607.84 1492 609C1510.48 609 1528.96 609 1548 609C1547.2 600.775 1547.2 600.775 1545.89 592.71C1545.67 591.569 1545.45 590.428 1545.23 589.252C1544.99 588.035 1544.75 586.818 1544.5 585.564C1544.24 584.242 1543.99 582.921 1543.73 581.599C1543.04 578.041 1542.35 574.484 1541.65 570.928C1540.92 567.199 1540.2 563.47 1539.47 559.741C1538.1 552.693 1536.72 545.645 1535.35 538.599C1533.78 530.57 1532.22 522.541 1530.65 514.511C1527.44 498.006 1524.22 481.503 1521 465C1520.67 465 1520.34 465 1520 465Z" fill="#555555"/>
<path d="M264.5 352.886C265.584 352.892 266.668 352.897 267.785 352.902C268.955 352.906 270.125 352.909 271.33 352.912C272.562 352.92 273.793 352.929 275.062 352.938C276.916 352.944 276.916 352.944 278.807 352.951C281.871 352.963 284.936 352.98 288 353C290.216 361.505 292.084 370.04 293.774 378.664C294.038 379.999 294.302 381.335 294.566 382.67C295.284 386.297 295.997 389.924 296.71 393.552C297.478 397.455 298.249 401.357 299.019 405.259C300.517 412.847 302.012 420.436 303.505 428.025C304.719 434.193 305.934 440.361 307.15 446.528C317.883 500.963 328.561 555.409 339.184 609.865C339.43 611.127 339.676 612.39 339.93 613.691C341.14 619.891 342.349 626.091 343.557 632.292C346.07 645.179 348.603 658.062 351.164 670.941C351.625 673.259 352.085 675.578 352.545 677.897C352.695 678.654 352.845 679.412 353 680.193C353.302 681.713 353.603 683.234 353.905 684.754C354.785 689.191 355.67 693.628 356.558 698.064C356.973 700.142 357.386 702.22 357.798 704.299C358.302 706.841 358.809 709.383 359.321 711.923C359.544 713.05 359.766 714.177 359.995 715.339C360.19 716.317 360.385 717.295 360.586 718.302C360.987 720.917 361.077 723.36 361 726C363.97 726 366.94 726 370 726C370 729.3 370 732.6 370 736C339.31 736 308.62 736 277 736C277 732.7 277 729.4 277 726C285.25 726 293.5 726 302 726C301.01 722.04 300.02 718.08 299 714C298.309 710.749 297.64 707.502 297.007 704.24C296.831 703.346 296.655 702.451 296.474 701.53C295.903 698.624 295.336 695.716 294.77 692.809C294.37 690.77 293.971 688.732 293.572 686.694C292.74 682.447 291.911 678.2 291.083 673.953C290.021 668.505 288.954 663.057 287.885 657.611C287.062 653.413 286.242 649.216 285.422 645.018C285.03 643.008 284.636 640.998 284.242 638.988C283.693 636.191 283.149 633.393 282.605 630.595C282.441 629.765 282.278 628.934 282.109 628.078C281.515 625.005 281 622.138 281 619C261.2 619 241.4 619 221 619C220.34 623.62 219.68 628.24 219 633C218.407 636.314 217.797 639.611 217.136 642.911C216.962 643.798 216.788 644.684 216.608 645.597C216.043 648.467 215.473 651.335 214.902 654.203C214.504 656.219 214.105 658.234 213.707 660.249C212.879 664.442 212.047 668.634 211.214 672.826C210.144 678.205 209.081 683.585 208.019 688.966C207.2 693.114 206.379 697.26 205.556 701.407C205.163 703.392 204.77 705.378 204.378 707.364C203.833 710.124 203.284 712.883 202.734 715.642C202.573 716.463 202.411 717.285 202.245 718.132C201.114 723.771 201.114 723.771 200 726C209.9 726 219.8 726 230 726C230 729.3 230 732.6 230 736C210.53 736 191.06 736 171 736C171 732.7 171 729.4 171 726C176.61 725.67 182.22 725.34 188 725C192.294 703.271 196.585 681.542 200.875 659.812C201.037 658.99 201.2 658.167 201.367 657.319C210.782 609.628 220.159 561.93 229.473 514.219C244.995 434.708 244.995 434.708 252.376 397.27C253.16 393.294 253.942 389.318 254.723 385.341C255.609 380.825 256.499 376.309 257.392 371.794C257.713 370.167 258.033 368.54 258.352 366.913C258.78 364.726 259.213 362.541 259.647 360.356C260.005 358.537 260.005 358.537 260.371 356.68C261.226 353.035 261.226 353.035 264.5 352.886ZM250 467C246.476 485.071 242.956 503.142 239.439 521.215C237.806 529.606 236.172 537.996 234.536 546.386C233.11 553.698 231.686 561.01 230.264 568.322C229.511 572.195 228.757 576.068 228 579.941C227.289 583.584 226.58 587.227 225.873 590.871C225.488 592.85 225.101 594.828 224.713 596.806C224.486 597.979 224.259 599.153 224.025 600.362C223.726 601.896 223.726 601.896 223.422 603.46C222.918 606.064 222.918 606.064 223 609C241.48 609 259.96 609 279 609C277.642 600.175 276.189 591.436 274.478 582.682C274.234 581.422 273.99 580.162 273.738 578.864C273.077 575.453 272.413 572.043 271.749 568.633C271.052 565.053 270.358 561.472 269.663 557.891C268.351 551.13 267.037 544.37 265.721 537.609C264.222 529.905 262.726 522.199 261.23 514.494C258.157 498.662 255.08 482.831 252 467C251.34 467 250.68 467 250 467Z" fill="#555555"/>
<path d="M24 353C55.35 353 86.7 353 119 353C119 356.3 119 359.6 119 363C106.625 363.495 106.625 363.495 94 364C94.3609 365.836 94.7219 367.671 95.0937 369.562C99.6897 392.937 104.283 416.312 108.875 439.688C109.058 440.617 109.24 441.546 109.428 442.503C118.671 489.555 127.907 536.607 137 583.688C137.188 584.66 137.376 585.633 137.569 586.635C139.717 597.756 141.861 608.877 144 620C152.573 577.668 160.88 535.284 169.156 492.893C169.558 490.837 169.959 488.781 170.361 486.725C172.052 478.065 173.742 469.405 175.431 460.744C175.815 458.777 176.199 456.81 176.582 454.843C179.4 440.399 182.205 425.953 184.986 411.503C185.409 409.301 185.833 407.099 186.258 404.897C186.396 404.182 186.533 403.466 186.675 402.729C186.951 401.3 187.226 399.871 187.501 398.441C188.302 394.283 189.101 390.124 189.897 385.964C190.501 382.814 191.108 379.664 191.715 376.514C191.932 375.371 192.15 374.228 192.375 373.051C192.575 372.013 192.776 370.975 192.982 369.906C193.156 369.001 193.329 368.097 193.508 367.165C194 365 194 365 195 363C185.1 363 175.2 363 165 363C165 359.7 165 356.4 165 353C184.47 353 203.94 353 224 353C224 356.3 224 359.6 224 363C215.585 363.495 215.585 363.495 207 364C193.467 432.552 179.957 501.108 166.562 569.688C166.429 570.371 166.296 571.054 166.158 571.758C164.688 579.287 163.217 586.815 161.747 594.344C161.551 595.349 161.551 595.349 161.351 596.374C160.696 599.726 160.041 603.079 159.386 606.432C153.731 635.395 148.055 664.354 142.375 693.312C141.936 695.551 141.497 697.79 141.058 700.029C138.706 712.019 136.353 724.01 134 736C125.09 736 116.18 736 107 736C102.781 716.569 98.7931 697.107 94.9857 677.591C94.2257 673.699 93.4627 669.807 92.7001 665.916C91.3926 659.242 90.0869 652.568 88.7823 645.894C86.7244 635.367 84.663 624.84 82.6008 614.313C82.4276 613.429 82.2545 612.545 82.076 611.634C81.3733 608.047 80.6705 604.46 79.9677 600.872C78.9057 595.451 77.844 590.03 76.7825 584.609C72.0436 560.41 67.2931 536.213 62.5273 512.02C62.3802 511.273 62.2331 510.526 62.0815 509.756C59.9511 498.942 57.8195 488.127 55.6875 477.312C55.4204 475.958 55.1533 474.603 54.8862 473.248C54.7556 472.585 54.6249 471.922 54.4903 471.24C54.1 469.26 53.7097 467.28 53.3195 465.3C52.8105 462.719 52.3014 460.137 51.7924 457.555C50.5793 451.401 49.3667 445.248 48.1553 439.094C47.6913 436.736 47.2272 434.379 46.7632 432.022C46.5366 430.871 46.31 429.72 46.0765 428.533C44.6519 421.299 43.2214 414.067 41.7873 406.835C40.8375 402.042 39.8907 397.249 38.9443 392.455C38.4988 390.202 38.0519 387.949 37.6036 385.697C36.9912 382.619 36.3833 379.541 35.7766 376.462C35.595 375.555 35.4134 374.649 35.2264 373.715C35.0634 372.883 34.9004 372.052 34.7325 371.195C34.5901 370.476 34.4477 369.758 34.301 369.018C34 367 34 367 34 363C30.7 363 27.4 363 24 363C24 359.7 24 356.4 24 353Z" fill="#555555"/>
<path d="M592 353C623.02 353 654.04 353 686 353C686 356.3 686 359.6 686 363C680.39 363 674.78 363 669 363C669 482.79 669 602.58 669 726C674.61 726 680.22 726 686 726C686 729.3 686 732.6 686 736C654.98 736 623.96 736 592 736C592 732.7 592 729.4 592 726C597.61 726 603.22 726 609 726C609 606.21 609 486.42 609 363C603.39 363 597.78 363 592 363C592 359.7 592 356.4 592 353Z" fill="#555555"/>
<path d="M1651 353C1681.03 353 1711.06 353 1742 353C1742 356.3 1742 359.6 1742 363C1736.72 363 1731.44 363 1726 363C1726 482.79 1726 602.58 1726 726C1731.28 726 1736.56 726 1742 726C1742 729.3 1742 732.6 1742 736C1711.97 736 1681.94 736 1651 736C1651 732.7 1651 729.4 1651 726C1655.95 726 1660.9 726 1666 726C1666 606.21 1666 486.42 1666 363C1661.05 363 1656.1 363 1651 363C1651 359.7 1651 356.4 1651 353Z" fill="#555555"/>
</svg>
