<svg width="1466" height="386" viewBox="0 0 1466 386" fill="none" xmlns="http://www.w3.org/2000/svg">
<path d="M432.491 1.08008C474.985 1.08008 515.747 25.7074 541.911 58.5283C572.056 96.3352 587.062 145.305 587.062 193.615C587.062 239.885 573.38 286.576 545.492 323.573C518.145 359.618 476.842 386 431.034 386C388.141 386 347.112 361.658 320.549 328.408C290.279 290.617 275.532 241.775 275.532 193.473C275.532 147.06 289.08 100.368 317.093 63.3711C344.714 27.049 386.276 1.08019 432.491 1.08008ZM768.735 0C779.893 0 790.911 3.49295 801.27 7.66895L808.847 10.6309C817.482 13.8621 826.909 16.9502 836.194 16.9502C847.752 16.9501 858.111 9.28117 867.005 2.55664H869.904V131.046H866.981C861.536 105.751 853.833 81.1311 840.426 58.7979C824.496 32.6936 799.131 3.37412 766.063 3.37402C690.111 3.37402 683.207 141.28 683.207 193.886C683.207 240.981 686.922 289.546 703.784 333.672C715.601 364.619 732.73 379.815 764.473 379.815C789.696 379.815 816.526 366.898 829.934 344.692C833.389 338.905 833.655 332.458 833.655 325.868V226.563H800.463V222.673H921.965V226.563H893.545V375.1H891.037C883.86 362.992 872.568 355.053 858.104 355.053C847.603 355.053 837.377 358.824 828.232 363.937L819.997 368.51C801.403 376.854 783.6 382.895 763.023 382.896C668.75 382.896 618.554 281.05 618.554 196.568C618.554 134.809 641.795 68.7464 691.191 30.1377C713.367 12.7745 740.189 4.15842e-06 768.735 0ZM129.205 12.7744H97.4697L193.874 280.241L275.273 12.7744H243.271V9.01855H312.987V12.7744H282.177L167.452 382.491L34 12.7744H0V9.01855H129.205V12.7744ZM1459.09 141.264H1456.57C1452.71 106.283 1446.07 70.358 1422.3 43.0469C1398.28 15.4658 1365.6 12.7744 1332.01 12.7744H1295.77V182.842C1303.19 183.644 1310.76 184.184 1318.34 184.184C1363.88 184.184 1375.7 152.434 1377.69 113.143H1381.01V262.346H1377.69C1371.98 226.698 1356.45 188.486 1315.14 188.486C1308.64 188.486 1302.27 188.892 1295.77 189.432V371.328H1350.07C1378.23 371.328 1406.24 358.951 1426.16 339.047C1443.15 322.097 1454.98 300.034 1459.1 276.216C1461.35 262.894 1462.42 249.31 1463.08 235.853H1466V375.1H1204.54V371.328H1234.95V12.7744H1170.67V296.397C1170.67 355.045 1115.7 381.015 1064.19 381.015C1005.89 381.015 941.609 352.361 941.609 284.813V12.7744H906.168L906.16 9.01855H1035.76V12.7822H1001.37V297.882C1001.37 342.54 1046.77 369.724 1086.47 369.725C1129.23 369.725 1165.21 339.595 1165.21 295.325V12.7744H1124.59V9.01074H1459.09V141.264ZM431.301 6.58984C359.728 6.58984 341.134 139.922 341.134 193.473C341.134 247.015 359.862 380.482 431.301 380.482C502.606 380.474 521.46 246.888 521.46 193.473C521.46 140.057 502.607 6.5904 431.301 6.58984Z" fill="#555555"/>
</svg>
